<svg width="17" height="26" viewBox="0 0 17 26" fill="none" xmlns="http://www.w3.org/2000/svg">
<path d="M5.62218 25.335H11.7595C15.255 25.335 16.9827 23.5672 16.9525 20.0314C16.9123 15.9935 16.8923 13.0605 16.7918 10.8607C16.5006 4.39195 14.6825 2.49351 8.69584 2.49351C2.70923 2.49351 0.881108 4.39195 0.589813 10.8607C0.489366 13.0605 0.469277 15.9935 0.429098 20.0314C0.398964 23.5672 2.12664 25.335 5.62218 25.335ZM5.33088 21.3473C4.46705 21.3473 3.91459 20.7848 3.91459 19.9411V14.758C3.91459 13.9042 4.46705 13.3417 5.33088 13.3417H12.0608C12.9146 13.3417 13.4671 13.9042 13.4671 14.758V19.9411C13.4671 20.7848 12.9146 21.3473 12.0608 21.3473H5.33088ZM3.91459 17.209H13.4671V16.0136H3.91459V17.209ZM8.69584 0.143066C6.76727 0.143066 5.41124 1.44887 5.41124 3.22677H6.82754C6.82754 2.25244 7.59093 1.55936 8.69584 1.55936C9.79068 1.55936 10.5642 2.25244 10.5642 3.22677H11.9804C11.9804 1.44887 10.6144 0.143066 8.69584 0.143066Z" fill="#262626"/>
</svg>
